<?xml version="1.0" encoding="UTF-8" standalone="no"?>
<svg
   width="1104pt"
   height="1104.299pt"
   version="1.1"
   viewBox="0 0 1104 1104.299"
   id="svg10"
   sodipodi:docname="noun-magic-book-5510665-008000.svg"
   inkscape:version="1.2 (dc2aeda, 2022-05-15)"
   xmlns:inkscape="http://www.inkscape.org/namespaces/inkscape"
   xmlns:sodipodi="http://sodipodi.sourceforge.net/DTD/sodipodi-0.dtd"
   xmlns="http://www.w3.org/2000/svg"
   xmlns:svg="http://www.w3.org/2000/svg">
  <defs
     id="defs14" />
  <sodipodi:namedview
     id="namedview12"
     pagecolor="#ffffff"
     bordercolor="#666666"
     borderopacity="1.0"
     inkscape:showpageshadow="2"
     inkscape:pageopacity="0.0"
     inkscape:pagecheckerboard="0"
     inkscape:deskcolor="#d1d1d1"
     inkscape:document-units="pt"
     showgrid="false"
     inkscape:zoom="0.1475"
     inkscape:cx="749.15254"
     inkscape:cy="671.18644"
     inkscape:window-width="710"
     inkscape:window-height="480"
     inkscape:window-x="0"
     inkscape:window-y="25"
     inkscape:window-maximized="0"
     inkscape:current-layer="svg10" />
  <path
     d="m 1091.999,336.299 h -36 v -24 c 0,-7.1992 -4.8008,-12 -12,-12 h -96 v -60 c 0,-3.6016 -1.1992,-7.1992 -4.8008,-9.6016 -2.3984,-2.3984 -6,-2.3984 -9.5977,-2.3984 l -310.8,58.801 c -31.199,6 -56.398,25.199 -70.801,52.801 -14.398,-26.398 -39.602,-46.801 -70.801,-52.801 l -310.8,-58.801 c -3.6016,-1.1992 -7.1992,0 -9.6016,2.3984 -2.3984,2.4023 -4.7969,6 -4.7969,9.6016 v 60 H 60 c -3.6016,0 -6,1.1992 -8.3984,3.6016 C 49.1993,306.299 48,308.6975 48,312.299 v 24 H 12 c -7.1992,0 -12,4.8008 -12,12 v 708 c 0,7.1992 4.8008,12 12,12 h 426 c 16.801,0 33.602,6 46.801,15.602 18,13.199 39.602,20.398 61.199,20.398 h 12 c 21.602,0 43.199,-7.1992 61.199,-20.398 13.199,-9.6016 30,-15.602 46.801,-15.602 h 426 c 7.1992,0 12,-4.8008 12,-12 v -708 c 0,-7.1992 -4.8008,-12 -12,-12 z m -60,-12 v 672 h -321.6 c -32.398,0 -64.801,4.8008 -94.801,15.602 32.398,-24 70.801,-40.801 110.4,-48 l 212.4,-39.602 c 6,-1.1992 9.6016,-6 9.6016,-12 v -588 z m -404.4,-14.398 296.4,-55.203 v 648 l -202.8,38.398 c -60,10.801 -115.2,40.801 -157.2,84 v -638.4 c 0,-37.199 26.398,-69.598 63.602,-76.797 z m -447.6,-55.203 296.4,55.199 c 37.199,7.1992 63.602,39.602 63.602,76.801 v 638.4 c -42,-43.199 -97.199,-73.199 -157.2,-84 l -202.8,-38.402 z m -24,69.602 v 588 c 0,6 3.6016,10.801 9.6016,12 l 212.4,39.602 c 39.602,7.1992 78,24 110.4,48 -30,-9.6016 -62.398,-15.602 -94.801,-15.602 h -321.6 v -672 z"
     fill="#007f00"
     id="path2" />
  <path
     d="m 339.599,193.499 -6,32.398 c -1.1992,4.8008 1.1992,9.6016 4.8008,12 2.3984,1.1992 4.8008,2.3984 7.1992,2.3984 2.3984,0 3.6016,0 6,-1.1992 l 28.801,-15.602 28.801,15.602 c 3.6016,2.3984 8.3984,1.1992 13.199,-1.1992 3.6016,-2.3984 6,-7.1992 4.8008,-12 l -6,-32.398 24,-22.801 c 3.6016,-3.6016 4.8008,-8.3984 3.6016,-12 -1.1992,-4.8008 -4.8008,-7.1992 -9.6016,-8.3984 l -32.398,-4.8008 -14.398,-30 c -3.6016,-8.3984 -18,-8.3984 -21.602,0 l -14.398,30 -32.398,4.8008 c -4.8008,1.1992 -8.3984,3.6016 -9.6016,8.3984 -1.1992,4.8008 0,9.6016 3.6016,12 z"
     fill="#007f00"
     id="path4" />
  <path
     d="m 511.199,84.299 -6,32.398 c -1.1992,4.8008 1.1992,9.6016 4.8008,12 3.6016,2.3984 8.3984,3.6016 13.199,1.1992 l 28.801,-15.602 28.801,15.602 c 1.1992,1.1992 3.6016,1.1992 6,1.1992 2.3984,0 4.8008,-1.1992 7.1992,-2.3984 3.6016,-2.3984 6,-7.1992 4.8008,-12 l -6,-32.398 24,-22.801 c 3.6016,-3.6016 4.8008,-8.3984 3.6016,-12 -1.1992,-4.8008 -4.8008,-7.1992 -9.6016,-8.3984 l -33.602,-4.8008 -14.398,-30 c -3.6016,-8.3984 -18,-8.3984 -21.602,0 l -14.398,30 -32.398,4.8008 c -4.8008,1.1992 -8.3984,3.6016 -9.6016,8.3984 -1.1992,4.8008 0,9.6016 3.6016,12 z"
     fill="#007f00"
     id="path6" />
  <path
     d="m 675.599,193.499 -6,32.398 c -1.1992,4.8008 1.1992,9.6016 4.8008,12 2.3984,1.1992 4.8008,2.3984 7.1992,2.3984 2.3984,0 3.6016,0 6,-1.1992 l 28.801,-15.602 28.801,15.602 c 3.6016,2.3984 8.3984,1.1992 13.199,-1.1992 3.6016,-2.3984 6,-7.1992 4.8008,-12 l -6,-32.398 24,-22.801 c 3.6016,-3.6016 4.8008,-8.3984 3.6016,-12 -1.1992,-4.8008 -4.8008,-7.1992 -9.6016,-8.3984 l -32.398,-4.8008 -14.398,-30 c -3.6016,-8.3984 -18,-8.3984 -21.602,0 l -14.398,30 -32.398,4.8008 c -4.8008,1.1992 -8.3984,3.6016 -9.6016,8.3984 -1.1992,4.8008 0,9.6016 3.6016,12 z"
     fill="#007f00"
     id="path8" />
</svg>
